<svg width="128" height="128" viewBox="0 0 128 128" xmlns="http://www.w3.org/2000/svg">
  <!-- Background circle with gradient -->
  <defs>
    <linearGradient id="bgGradient" x1="0%" y1="0%" x2="100%" y2="100%">
      <stop offset="0%" style="stop-color:#ff4500;stop-opacity:1" />
      <stop offset="100%" style="stop-color:#ff5722;stop-opacity:1" />
    </linearGradient>
    <linearGradient id="scaleGradient" x1="0%" y1="0%" x2="100%" y2="100%">
      <stop offset="0%" style="stop-color:#ffffff;stop-opacity:0.9" />
      <stop offset="100%" style="stop-color:#ffffff;stop-opacity:1" />
    </linearGradient>
    <filter id="shadow" x="-50%" y="-50%" width="200%" height="200%">
      <feDropShadow dx="2" dy="2" stdDeviation="3" flood-color="#000000" flood-opacity="0.3"/>
    </filter>
  </defs>
  
  <!-- Background circle -->
  <circle cx="64" cy="64" r="60" fill="url(#bgGradient)" stroke="#fff" stroke-width="2"/>
  
  <!-- Scale base/pedestal -->
  <rect x="58" y="75" width="12" height="25" fill="url(#scaleGradient)" filter="url(#shadow)"/>
  <rect x="60" y="70" width="8" height="8" fill="url(#scaleGradient)" filter="url(#shadow)"/>
  <rect x="62" y="65" width="4" height="8" fill="url(#scaleGradient)" filter="url(#shadow)"/>
  
  <!-- Fulcrum/pivot point -->
  <circle cx="64" cy="60" r="3" fill="#ff4500" filter="url(#shadow)"/>
  
  <!-- Main beam -->
  <rect x="20" y="58" width="88" height="4" fill="url(#scaleGradient)" filter="url(#shadow)"/>
  
  <!-- Left pan chain -->
  <line x1="30" y1="60" x2="30" y2="45" stroke="url(#scaleGradient)" stroke-width="2" filter="url(#shadow)"/>
  
  <!-- Left pan -->
  <ellipse cx="30" cy="40" rx="12" ry="4" fill="url(#scaleGradient)" filter="url(#shadow)"/>
  <ellipse cx="30" cy="38" rx="10" ry="3" fill="url(#scaleGradient)" filter="url(#shadow)"/>
  
  <!-- Right pan chain -->
  <line x1="98" y1="60" x2="98" y2="45" stroke="url(#scaleGradient)" stroke-width="2" filter="url(#shadow)"/>
  
  <!-- Right pan -->
  <ellipse cx="98" cy="40" rx="12" ry="4" fill="url(#scaleGradient)" filter="url(#shadow)"/>
  <ellipse cx="98" cy="38" rx="10" ry="3" fill="url(#scaleGradient)" filter="url(#shadow)"/>
  
  <!-- Weight indicators (small circles representing votes) -->
  <circle cx="25" cy="35" r="2" fill="#ff4500" opacity="0.8"/>
  <circle cx="35" cy="35" r="2" fill="#ff4500" opacity="0.8"/>
  <circle cx="93" cy="35" r="2" fill="#ff4500" opacity="0.8"/>
  <circle cx="103" cy="35" r="2" fill="#ff4500" opacity="0.8"/>
  
  <!-- Balance indicator (center line) -->
  <line x1="64" y1="55" x2="64" y2="65" stroke="#ffffff" stroke-width="2" opacity="0.8"/>
</svg>
